# xmcd
#
# Track frame offsets: 
#        150
#        14984
#        33802
#
# Disc length: 680 seconds
#
# Revision: 0
# Processed by: cddbd v1.5.2PL0 Copyright (c) Steve Scherf et al.
# Submitted via: ExactAudioCopy v0.99pb5
#
DISCID=1e02a603
DTITLE=Apple Orchard - Turning Point
DYEAR=2008
DGENRE=A Cappella
TTITLE0=Turning Point
TTITLE1=Careful, Careless
TTITLE2=2-Star Motel
EXTD=
EXTT0=
EXTT1=
EXTT2=
PLAYORDER=
